# xmcd
#
# Track frame offsets: 
#        150
#        26110
#        42733
#        66245
#        85155
#        102563
#        119700
#        138685
#        158713
#        174763
#        199890
#        219600
#        239103
#        256930
#        281860
#
# Disc length: 4432 seconds
#
# Revision: 4
# Processed by: cddbd v1.5.2PL0 Copyright (c) Steve Scherf et al.
# Submitted via: ExactAudioCopyFreeDBPlugin 1.0
#
DISCID=f1114e0f
DTITLE=SHAKATAK - BEST OF SHAKATAK
DYEAR=1900
DGENRE=Jazz
TTITLE0=Night Birds [Millennium Version]
TTITLE1=Let's Start Over Again
TTITLE2=Brazilian Love Affair
TTITLE3=Say What You Want
TTITLE4=Sunshine
TTITLE5=Mr. Manic and Sister Cool
TTITLE6=Steveland
TTITLE7=Tahitian Nights
TTITLE8=Lovely Day
TTITLE9=Let The Piano Play
TTITLE10=Carwalk
TTITLE11=Changes
TTITLE12=Magic
TTITLE13=Space Dance
TTITLE14=Night Birds
EXTD=
EXTT0=
EXTT1=
EXTT2=
EXTT3=
EXTT4=
EXTT5=
EXTT6=
EXTT7=
EXTT8=
EXTT9=
EXTT10=
EXTT11=
EXTT12=
EXTT13=
EXTT14=
PLAYORDER=
